<svg width="199" height="182" viewBox="0 0 199 182" fill="none" xmlns="http://www.w3.org/2000/svg">
<g clip-path="url(#clip0_822_3)">
<path d="M8.72415 104.75C8.72415 107.169 6.77596 109.124 4.36635 109.124C1.95674 109.124 0 107.169 0 104.75C0 102.331 1.9482 100.375 4.3578 100.375C6.76741 100.375 8.72415 102.331 8.72415 104.75Z" fill="white"/>
<path d="M31.3847 109.124C33.7914 109.124 35.7425 107.166 35.7425 104.75C35.7425 102.334 33.7914 100.375 31.3847 100.375C28.9779 100.375 27.0269 102.334 27.0269 104.75C27.0269 107.166 28.9779 109.124 31.3847 109.124Z" fill="white"/>
<path d="M58.4115 109.124C60.8183 109.124 62.7693 107.166 62.7693 104.75C62.7693 102.334 60.8183 100.375 58.4115 100.375C56.0048 100.375 54.0537 102.334 54.0537 104.75C54.0537 107.166 56.0048 109.124 58.4115 109.124Z" fill="white"/>
<path d="M89.7879 104.75C89.7879 107.169 87.8397 109.124 85.4301 109.124C83.0205 109.124 81.0723 107.169 81.0723 104.75C81.0723 102.331 83.0205 100.375 85.4301 100.375C87.8397 100.375 89.7879 102.331 89.7879 104.75Z" fill="white"/>
<path d="M8.72415 129.042C8.72415 131.461 6.77596 133.416 4.36635 133.416C1.95674 133.416 0 131.461 0 129.042C0 126.623 1.9482 124.667 4.3578 124.667C6.76741 124.667 8.72415 126.623 8.72415 129.042Z" fill="white"/>
<path d="M31.3847 133.416C33.7914 133.416 35.7425 131.458 35.7425 129.042C35.7425 126.626 33.7914 124.667 31.3847 124.667C28.9779 124.667 27.0269 126.626 27.0269 129.042C27.0269 131.458 28.9779 133.416 31.3847 133.416Z" fill="white"/>
<path d="M58.4115 133.416C60.8183 133.416 62.7693 131.458 62.7693 129.042C62.7693 126.626 60.8183 124.667 58.4115 124.667C56.0048 124.667 54.0537 126.626 54.0537 129.042C54.0537 131.458 56.0048 133.416 58.4115 133.416Z" fill="white"/>
<path d="M89.7879 129.042C89.7879 131.461 87.8397 133.416 85.4301 133.416C83.0205 133.416 81.0723 131.461 81.0723 129.042C81.0723 126.623 83.0205 124.667 85.4301 124.667C87.8397 124.667 89.7879 126.623 89.7879 129.042Z" fill="white"/>
<path d="M8.72415 153.334C8.72415 155.753 6.77596 157.708 4.36635 157.708C1.95674 157.708 0 155.753 0 153.334C0 150.915 1.9482 148.959 4.3578 148.959C6.76741 148.959 8.72415 150.915 8.72415 153.334Z" fill="white"/>
<path d="M31.3847 157.708C33.7914 157.708 35.7425 155.75 35.7425 153.334C35.7425 150.918 33.7914 148.959 31.3847 148.959C28.9779 148.959 27.0269 150.918 27.0269 153.334C27.0269 155.75 28.9779 157.708 31.3847 157.708Z" fill="white"/>
<path d="M58.4115 157.708C60.8183 157.708 62.7693 155.75 62.7693 153.334C62.7693 150.918 60.8183 148.959 58.4115 148.959C56.0048 148.959 54.0537 150.918 54.0537 153.334C54.0537 155.75 56.0048 157.708 58.4115 157.708Z" fill="white"/>
<path d="M89.7879 153.334C89.7879 155.753 87.8397 157.708 85.4301 157.708C83.0205 157.708 81.0723 155.753 81.0723 153.334C81.0723 150.915 83.0205 148.959 85.4301 148.959C87.8397 148.959 89.7879 150.915 89.7879 153.334Z" fill="white"/>
<path d="M8.72415 177.626C8.72415 180.045 6.77596 182 4.36635 182C1.95674 182 0 180.036 0 177.626C0 175.215 1.9482 173.251 4.3578 173.251C6.76741 173.251 8.72415 175.207 8.72415 177.626Z" fill="white"/>
<path d="M31.3847 182C33.7914 182 35.7425 180.042 35.7425 177.626C35.7425 175.21 33.7914 173.251 31.3847 173.251C28.9779 173.251 27.0269 175.21 27.0269 177.626C27.0269 180.042 28.9779 182 31.3847 182Z" fill="white"/>
<path d="M58.4115 182C60.8183 182 62.7693 180.042 62.7693 177.626C62.7693 175.21 60.8183 173.251 58.4115 173.251C56.0048 173.251 54.0537 175.21 54.0537 177.626C54.0537 180.042 56.0048 182 58.4115 182Z" fill="white"/>
<path d="M89.7879 177.626C89.7879 180.045 87.8397 182 85.4301 182C83.0205 182 81.0723 180.045 81.0723 177.626C81.0723 175.207 83.0205 173.251 85.4301 173.251C87.8397 173.251 89.7879 175.207 89.7879 177.626Z" fill="white"/>
</g>
<g clip-path="url(#clip1_822_3)">
<path d="M8.72415 4.37462C8.72415 6.79353 6.77596 8.74925 4.36635 8.74925C1.95674 8.74925 0 6.79353 0 4.37462C0 1.95571 1.9482 0 4.3578 0C6.76741 0 8.72415 1.95571 8.72415 4.37462Z" fill="white"/>
<path d="M31.3847 8.74925C33.7914 8.74925 35.7425 6.79066 35.7425 4.37462C35.7425 1.95859 33.7914 0 31.3847 0C28.9779 0 27.0269 1.95859 27.0269 4.37462C27.0269 6.79066 28.9779 8.74925 31.3847 8.74925Z" fill="white"/>
<path d="M58.4115 8.74925C60.8183 8.74925 62.7693 6.79066 62.7693 4.37462C62.7693 1.95859 60.8183 0 58.4115 0C56.0048 0 54.0537 1.95859 54.0537 4.37462C54.0537 6.79066 56.0048 8.74925 58.4115 8.74925Z" fill="white"/>
<path d="M89.7879 4.37462C89.7879 6.79353 87.8397 8.74925 85.4301 8.74925C83.0205 8.74925 81.0723 6.79353 81.0723 4.37462C81.0723 1.95571 83.0205 0 85.4301 0C87.8397 0 89.7879 1.95571 89.7879 4.37462Z" fill="white"/>
<path d="M8.72415 28.6666C8.72415 31.0855 6.77596 33.0412 4.36635 33.0412C1.95674 33.0412 0 31.0855 0 28.6666C0 26.2477 1.9482 24.292 4.3578 24.292C6.76741 24.292 8.72415 26.2477 8.72415 28.6666Z" fill="white"/>
<path d="M31.3847 33.0412C33.7914 33.0412 35.7425 31.0827 35.7425 28.6666C35.7425 26.2506 33.7914 24.292 31.3847 24.292C28.9779 24.292 27.0269 26.2506 27.0269 28.6666C27.0269 31.0827 28.9779 33.0412 31.3847 33.0412Z" fill="white"/>
<path d="M58.4115 33.0412C60.8183 33.0412 62.7693 31.0827 62.7693 28.6666C62.7693 26.2506 60.8183 24.292 58.4115 24.292C56.0048 24.292 54.0537 26.2506 54.0537 28.6666C54.0537 31.0827 56.0048 33.0412 58.4115 33.0412Z" fill="white"/>
<path d="M89.7879 28.6666C89.7879 31.0855 87.8397 33.0412 85.4301 33.0412C83.0205 33.0412 81.0723 31.0855 81.0723 28.6666C81.0723 26.2477 83.0205 24.292 85.4301 24.292C87.8397 24.292 89.7879 26.2477 89.7879 28.6666Z" fill="white"/>
<path d="M8.72415 52.9586C8.72415 55.3775 6.77596 57.3332 4.36635 57.3332C1.95674 57.3332 0 55.3775 0 52.9586C0 50.5397 1.9482 48.584 4.3578 48.584C6.76741 48.584 8.72415 50.5397 8.72415 52.9586Z" fill="white"/>
<path d="M31.3847 57.3332C33.7914 57.3332 35.7425 55.3746 35.7425 52.9586C35.7425 50.5426 33.7914 48.584 31.3847 48.584C28.9779 48.584 27.0269 50.5426 27.0269 52.9586C27.0269 55.3746 28.9779 57.3332 31.3847 57.3332Z" fill="white"/>
<path d="M58.4115 57.3332C60.8183 57.3332 62.7693 55.3746 62.7693 52.9586C62.7693 50.5426 60.8183 48.584 58.4115 48.584C56.0048 48.584 54.0537 50.5426 54.0537 52.9586C54.0537 55.3746 56.0048 57.3332 58.4115 57.3332Z" fill="white"/>
<path d="M89.7879 52.9586C89.7879 55.3775 87.8397 57.3332 85.4301 57.3332C83.0205 57.3332 81.0723 55.3775 81.0723 52.9586C81.0723 50.5397 83.0205 48.584 85.4301 48.584C87.8397 48.584 89.7879 50.5397 89.7879 52.9586Z" fill="white"/>
<path d="M8.72415 77.2506C8.72415 79.6695 6.77596 81.6252 4.36635 81.6252C1.95674 81.6252 0 79.6609 0 77.2506C0 74.8403 1.9482 72.876 4.3578 72.876C6.76741 72.876 8.72415 74.8317 8.72415 77.2506Z" fill="white"/>
<path d="M31.3847 81.6252C33.7914 81.6252 35.7425 79.6666 35.7425 77.2506C35.7425 74.8346 33.7914 72.876 31.3847 72.876C28.9779 72.876 27.0269 74.8346 27.0269 77.2506C27.0269 79.6666 28.9779 81.6252 31.3847 81.6252Z" fill="white"/>
<path d="M58.4115 81.6252C60.8183 81.6252 62.7693 79.6666 62.7693 77.2506C62.7693 74.8346 60.8183 72.876 58.4115 72.876C56.0048 72.876 54.0537 74.8346 54.0537 77.2506C54.0537 79.6666 56.0048 81.6252 58.4115 81.6252Z" fill="white"/>
<path d="M89.7879 77.2506C89.7879 79.6695 87.8397 81.6252 85.4301 81.6252C83.0205 81.6252 81.0723 79.6695 81.0723 77.2506C81.0723 74.8317 83.0205 72.876 85.4301 72.876C87.8397 72.876 89.7879 74.8317 89.7879 77.2506Z" fill="white"/>
</g>
<g clip-path="url(#clip2_822_3)">
<path d="M117.261 104.75C117.261 107.169 115.313 109.124 112.903 109.124C110.494 109.124 108.537 107.169 108.537 104.75C108.537 102.331 110.485 100.375 112.895 100.375C115.305 100.375 117.261 102.331 117.261 104.75Z" fill="white"/>
<path d="M139.922 109.124C142.329 109.124 144.28 107.166 144.28 104.75C144.28 102.334 142.329 100.375 139.922 100.375C137.515 100.375 135.564 102.334 135.564 104.75C135.564 107.166 137.515 109.124 139.922 109.124Z" fill="white"/>
<path d="M166.949 109.124C169.355 109.124 171.306 107.166 171.306 104.75C171.306 102.334 169.355 100.375 166.949 100.375C164.542 100.375 162.591 102.334 162.591 104.75C162.591 107.166 164.542 109.124 166.949 109.124Z" fill="white"/>
<path d="M198.325 104.75C198.325 107.169 196.377 109.124 193.967 109.124C191.558 109.124 189.609 107.169 189.609 104.75C189.609 102.331 191.558 100.375 193.967 100.375C196.377 100.375 198.325 102.331 198.325 104.75Z" fill="white"/>
<path d="M117.261 129.042C117.261 131.461 115.313 133.416 112.903 133.416C110.494 133.416 108.537 131.461 108.537 129.042C108.537 126.623 110.485 124.667 112.895 124.667C115.305 124.667 117.261 126.623 117.261 129.042Z" fill="white"/>
<path d="M139.922 133.416C142.329 133.416 144.28 131.458 144.28 129.042C144.28 126.626 142.329 124.667 139.922 124.667C137.515 124.667 135.564 126.626 135.564 129.042C135.564 131.458 137.515 133.416 139.922 133.416Z" fill="white"/>
<path d="M166.949 133.416C169.355 133.416 171.306 131.458 171.306 129.042C171.306 126.626 169.355 124.667 166.949 124.667C164.542 124.667 162.591 126.626 162.591 129.042C162.591 131.458 164.542 133.416 166.949 133.416Z" fill="white"/>
<path d="M198.325 129.042C198.325 131.461 196.377 133.416 193.967 133.416C191.558 133.416 189.609 131.461 189.609 129.042C189.609 126.623 191.558 124.667 193.967 124.667C196.377 124.667 198.325 126.623 198.325 129.042Z" fill="white"/>
<path d="M117.261 153.334C117.261 155.753 115.313 157.708 112.903 157.708C110.494 157.708 108.537 155.753 108.537 153.334C108.537 150.915 110.485 148.959 112.895 148.959C115.305 148.959 117.261 150.915 117.261 153.334Z" fill="white"/>
<path d="M139.922 157.708C142.329 157.708 144.28 155.75 144.28 153.334C144.28 150.918 142.329 148.959 139.922 148.959C137.515 148.959 135.564 150.918 135.564 153.334C135.564 155.75 137.515 157.708 139.922 157.708Z" fill="white"/>
<path d="M166.949 157.708C169.355 157.708 171.306 155.75 171.306 153.334C171.306 150.918 169.355 148.959 166.949 148.959C164.542 148.959 162.591 150.918 162.591 153.334C162.591 155.75 164.542 157.708 166.949 157.708Z" fill="white"/>
<path d="M198.325 153.334C198.325 155.753 196.377 157.708 193.967 157.708C191.558 157.708 189.609 155.753 189.609 153.334C189.609 150.915 191.558 148.959 193.967 148.959C196.377 148.959 198.325 150.915 198.325 153.334Z" fill="white"/>
<path d="M117.261 177.626C117.261 180.045 115.313 182 112.903 182C110.494 182 108.537 180.036 108.537 177.626C108.537 175.215 110.485 173.251 112.895 173.251C115.305 173.251 117.261 175.207 117.261 177.626Z" fill="white"/>
<path d="M139.922 182C142.329 182 144.28 180.042 144.28 177.626C144.28 175.21 142.329 173.251 139.922 173.251C137.515 173.251 135.564 175.21 135.564 177.626C135.564 180.042 137.515 182 139.922 182Z" fill="white"/>
<path d="M166.949 182C169.355 182 171.306 180.042 171.306 177.626C171.306 175.21 169.355 173.251 166.949 173.251C164.542 173.251 162.591 175.21 162.591 177.626C162.591 180.042 164.542 182 166.949 182Z" fill="white"/>
<path d="M198.325 177.626C198.325 180.045 196.377 182 193.967 182C191.558 182 189.609 180.045 189.609 177.626C189.609 175.207 191.558 173.251 193.967 173.251C196.377 173.251 198.325 175.207 198.325 177.626Z" fill="white"/>
</g>
<g clip-path="url(#clip3_822_3)">
<path d="M117.261 4.37462C117.261 6.79353 115.313 8.74925 112.903 8.74925C110.494 8.74925 108.537 6.79353 108.537 4.37462C108.537 1.95571 110.485 0 112.895 0C115.305 0 117.261 1.95571 117.261 4.37462Z" fill="white"/>
<path d="M139.922 8.74925C142.329 8.74925 144.28 6.79066 144.28 4.37462C144.28 1.95859 142.329 0 139.922 0C137.515 0 135.564 1.95859 135.564 4.37462C135.564 6.79066 137.515 8.74925 139.922 8.74925Z" fill="white"/>
<path d="M166.949 8.74925C169.355 8.74925 171.306 6.79066 171.306 4.37462C171.306 1.95859 169.355 0 166.949 0C164.542 0 162.591 1.95859 162.591 4.37462C162.591 6.79066 164.542 8.74925 166.949 8.74925Z" fill="white"/>
<path d="M198.325 4.37462C198.325 6.79353 196.377 8.74925 193.967 8.74925C191.558 8.74925 189.609 6.79353 189.609 4.37462C189.609 1.95571 191.558 0 193.967 0C196.377 0 198.325 1.95571 198.325 4.37462Z" fill="white"/>
<path d="M117.261 28.6666C117.261 31.0855 115.313 33.0412 112.903 33.0412C110.494 33.0412 108.537 31.0855 108.537 28.6666C108.537 26.2477 110.485 24.292 112.895 24.292C115.305 24.292 117.261 26.2477 117.261 28.6666Z" fill="white"/>
<path d="M139.922 33.0412C142.329 33.0412 144.28 31.0827 144.28 28.6666C144.28 26.2506 142.329 24.292 139.922 24.292C137.515 24.292 135.564 26.2506 135.564 28.6666C135.564 31.0827 137.515 33.0412 139.922 33.0412Z" fill="white"/>
<path d="M166.949 33.0412C169.355 33.0412 171.306 31.0827 171.306 28.6666C171.306 26.2506 169.355 24.292 166.949 24.292C164.542 24.292 162.591 26.2506 162.591 28.6666C162.591 31.0827 164.542 33.0412 166.949 33.0412Z" fill="white"/>
<path d="M198.325 28.6666C198.325 31.0855 196.377 33.0412 193.967 33.0412C191.558 33.0412 189.609 31.0855 189.609 28.6666C189.609 26.2477 191.558 24.292 193.967 24.292C196.377 24.292 198.325 26.2477 198.325 28.6666Z" fill="white"/>
<path d="M117.261 52.9586C117.261 55.3775 115.313 57.3332 112.903 57.3332C110.494 57.3332 108.537 55.3775 108.537 52.9586C108.537 50.5397 110.485 48.584 112.895 48.584C115.305 48.584 117.261 50.5397 117.261 52.9586Z" fill="white"/>
<path d="M139.922 57.3332C142.329 57.3332 144.28 55.3746 144.28 52.9586C144.28 50.5426 142.329 48.584 139.922 48.584C137.515 48.584 135.564 50.5426 135.564 52.9586C135.564 55.3746 137.515 57.3332 139.922 57.3332Z" fill="white"/>
<path d="M166.949 57.3332C169.355 57.3332 171.306 55.3746 171.306 52.9586C171.306 50.5426 169.355 48.584 166.949 48.584C164.542 48.584 162.591 50.5426 162.591 52.9586C162.591 55.3746 164.542 57.3332 166.949 57.3332Z" fill="white"/>
<path d="M198.325 52.9586C198.325 55.3775 196.377 57.3332 193.967 57.3332C191.558 57.3332 189.609 55.3775 189.609 52.9586C189.609 50.5397 191.558 48.584 193.967 48.584C196.377 48.584 198.325 50.5397 198.325 52.9586Z" fill="white"/>
<path d="M117.261 77.2506C117.261 79.6695 115.313 81.6252 112.903 81.6252C110.494 81.6252 108.537 79.6609 108.537 77.2506C108.537 74.8403 110.485 72.876 112.895 72.876C115.305 72.876 117.261 74.8317 117.261 77.2506Z" fill="white"/>
<path d="M139.922 81.6252C142.329 81.6252 144.28 79.6666 144.28 77.2506C144.28 74.8346 142.329 72.876 139.922 72.876C137.515 72.876 135.564 74.8346 135.564 77.2506C135.564 79.6666 137.515 81.6252 139.922 81.6252Z" fill="white"/>
<path d="M166.949 81.6252C169.355 81.6252 171.306 79.6666 171.306 77.2506C171.306 74.8346 169.355 72.876 166.949 72.876C164.542 72.876 162.591 74.8346 162.591 77.2506C162.591 79.6666 164.542 81.6252 166.949 81.6252Z" fill="white"/>
<path d="M198.325 77.2506C198.325 79.6695 196.377 81.6252 193.967 81.6252C191.558 81.6252 189.609 79.6695 189.609 77.2506C189.609 74.8317 191.558 72.876 193.967 72.876C196.377 72.876 198.325 74.8317 198.325 77.2506Z" fill="white"/>
</g>
<defs>
<clipPath id="clip0_822_3">
<rect width="89.7879" height="81.6253" fill="white" transform="translate(0 100.375)"/>
</clipPath>
<clipPath id="clip1_822_3">
<rect width="89.7879" height="81.6253" fill="white"/>
</clipPath>
<clipPath id="clip2_822_3">
<rect width="89.7879" height="81.6253" fill="white" transform="translate(108.537 100.375)"/>
</clipPath>
<clipPath id="clip3_822_3">
<rect width="89.7879" height="81.6253" fill="white" transform="translate(108.537)"/>
</clipPath>
</defs>
</svg>
