<svg width="30" height="30" viewBox="0 0 30 30" fill="none" xmlns="http://www.w3.org/2000/svg">
<g clip-path="url(#clip0)">
<g filter="url(#filter0_f)">
<path d="M9.33684 23.6597L9.71954 23.886C11.3268 24.8381 13.1695 25.3415 15.0488 25.3425H15.0528C20.824 25.3425 25.5209 20.6557 25.5233 14.8951C25.5243 12.1036 24.4363 9.47854 22.4593 7.50394C20.4823 5.52934 17.8537 4.44136 15.0568 4.44018C9.28115 4.44018 4.58422 9.12648 4.5821 14.8866C4.58124 16.8605 5.13468 18.7831 6.18274 20.4466L6.4319 20.8418L5.37393 24.6968L9.33684 23.6597ZM2.34937 27.683L4.13664 21.1698C3.03431 19.2637 2.45436 17.1012 2.45507 14.8859C2.45789 7.95538 8.10875 2.31699 15.0528 2.31699C18.4226 2.31863 21.5854 3.6275 23.9642 6.00338C26.3422 8.37926 27.6517 11.5372 27.6505 14.896C27.6475 21.8261 21.9957 27.4654 15.0528 27.4654C15.0523 27.4654 15.0533 27.4654 15.0528 27.4654H15.0474C12.9392 27.4646 10.8676 26.9368 9.02751 25.9352L2.34937 27.683Z" fill="#B3B3B3"/>
</g>
<path d="M2.21997 27.5538L4.00724 21.0406C2.90492 19.1345 2.32497 16.972 2.32567 14.7567C2.3285 7.82617 7.97936 2.18777 14.9234 2.18777C18.2932 2.18942 21.456 3.49829 23.8348 5.87417C26.2128 8.25005 27.5223 11.408 27.5212 14.7668C27.5181 21.6969 21.8663 27.3362 14.9234 27.3362C14.9229 27.3362 14.9239 27.3362 14.9234 27.3362H14.918C12.8098 27.3354 10.7382 26.8076 8.89812 25.806L2.21997 27.5538Z" fill="white"/>
<path d="M14.9275 4.311C9.15184 4.311 4.45488 8.99727 4.45276 14.7574C4.4519 16.7313 5.00537 18.6539 6.05343 20.3174L6.30259 20.7126L5.24456 24.5676L9.20752 23.5304L9.59019 23.7568C11.1974 24.7089 13.0402 25.2123 14.9194 25.2133H14.9234C20.6946 25.2133 25.3916 20.5265 25.3939 14.7659C25.3949 11.9744 24.307 9.34933 22.33 7.37473C20.353 5.40013 17.7244 4.31218 14.9275 4.311Z" fill="url(#paint0_linear)"/>
<path fill-rule="evenodd" clip-rule="evenodd" d="M11.7749 9.50193C11.539 8.9789 11.2908 8.9683 11.0666 8.95912C10.8831 8.95135 10.6731 8.95182 10.4633 8.95182C10.2533 8.95182 9.9124 9.03047 9.62407 9.34486C9.33551 9.65924 8.52222 10.4192 8.52222 11.9649C8.52222 13.5107 9.65026 15.0042 9.8074 15.214C9.96478 15.4236 11.9849 18.697 15.1846 19.9561C17.8434 21.0027 18.3844 20.7945 18.9618 20.7422C19.5389 20.6899 20.8241 19.9823 21.0862 19.2487C21.3486 18.5152 21.3486 17.8866 21.27 17.7552C21.1912 17.6241 20.9815 17.5456 20.6665 17.3886C20.3517 17.2315 18.8042 16.4713 18.5156 16.3665C18.227 16.2617 18.0173 16.2095 17.8073 16.5238C17.5976 16.8382 16.9947 17.5456 16.8109 17.7552C16.6274 17.9651 16.4438 17.9912 16.1288 17.8341C15.8141 17.6766 14.8002 17.3452 13.5976 16.2749C12.6618 15.4422 12.0302 14.4138 11.8464 14.0994C11.6629 13.7851 11.8268 13.615 11.9847 13.4584C12.126 13.3176 12.2994 13.0915 12.457 12.9081C12.614 12.7246 12.6666 12.5937 12.7713 12.3844C12.8763 12.1745 12.8239 11.9911 12.7451 11.834C12.6666 11.6769 12.0548 10.1232 11.7749 9.50193Z" fill="white"/>
</g>
<defs>
<filter id="filter0_f" x="-24.3394" y="-24.3718" width="78.6787" height="78.7436" filterUnits="userSpaceOnUse" color-interpolation-filters="sRGB">
<feFlood flood-opacity="0" result="BackgroundImageFix"/>
<feBlend mode="normal" in="SourceGraphic" in2="BackgroundImageFix" result="shape"/>
<feGaussianBlur stdDeviation="13.3444" result="effect1_foregroundBlur"/>
</filter>
<linearGradient id="paint0_linear" x1="14.7102" y1="5.56537" x2="14.816" y2="23.4276" gradientUnits="userSpaceOnUse">
<stop stop-color="#57D163"/>
<stop offset="1" stop-color="#23B33A"/>
</linearGradient>
<clipPath id="clip0">
<rect width="30" height="30" fill="white"/>
</clipPath>
</defs>
</svg>
